<?xml version="1.0" standalone="no"?>
<!DOCTYPE svg PUBLIC "-//W3C//DTD SVG 20010904//EN"
 "http://www.w3.org/TR/2001/REC-SVG-20010904/DTD/svg10.dtd">
<svg version="1.0" xmlns="http://www.w3.org/2000/svg"
 width="500.000000pt" height="500.000000pt" viewBox="0 0 500.000000 500.000000"
 preserveAspectRatio="xMidYMid meet">
<metadata>
Created by potrace 1.16, written by Peter Selinger 2001-2019
</metadata>
<g transform="translate(0.000000,500.000000) scale(0.100000,-0.100000)"
fill="#000000" stroke="none">
<path d="M688 4983 c-34 -21 -52 -64 -44 -99 4 -14 43 -79 86 -145 44 -65 80
-123 80 -128 0 -5 -37 -65 -82 -133 -95 -142 -103 -177 -55 -226 l27 -27 410
-3 410 -3 0 -274 0 -275 -300 0 c-333 0 -348 -3 -369 -61 -7 -20 -11 -124 -11
-279 l0 -248 -67 -16 c-235 -59 -433 -257 -493 -492 -19 -75 -20 -116 -20
-1291 0 -851 3 -1220 11 -1235 17 -32 74 -51 114 -38 62 21 65 32 65 300 l0
240 195 0 194 0 3 -246 3 -246 33 -29 32 -29 716 0 716 0 29 29 29 29 0 1402
c0 1331 1 1402 18 1397 9 -2 208 -55 442 -117 853 -225 973 -259 1014 -288
102 -70 115 -223 28 -316 -15 -16 -121 -91 -237 -168 -295 -196 -395 -298
-489 -499 -84 -179 -95 -266 -96 -730 0 -371 6 -438 43 -518 28 -60 120 -151
181 -180 198 -92 426 -10 523 186 l28 58 5 400 c5 392 6 401 29 452 33 74 87
119 341 287 124 82 243 165 265 184 102 92 173 200 216 327 23 68 24 80 24
385 l0 315 -31 88 c-45 125 -87 190 -189 293 -146 148 -159 153 -880 332 -330
82 -760 188 -955 236 l-355 86 -302 0 -303 0 -2 636 -3 636 -33 29 -32 29
-468 0 c-420 -1 -470 -2 -494 -17z m832 -373 l0 -190 -295 0 c-162 0 -295 2
-295 5 0 2 23 39 50 81 29 44 50 88 50 104 0 15 -18 54 -39 87 -21 33 -44 70
-50 82 l-12 21 296 0 295 0 0 -190z m690 -1325 l0 -195 -40 0 c-114 0 -168
-108 -88 -175 23 -19 41 -25 79 -25 l49 0 -2 -487 -3 -488 -580 0 -580 0 -3
487 -2 487 260 3 260 3 27 28 c38 38 38 96 0 134 l-27 28 -260 3 -260 3 0 194
0 195 585 0 585 0 0 -195z m485 95 c143 -35 261 -65 263 -66 2 -1 -23 -84 -55
-184 -57 -177 -59 -181 -83 -176 -14 3 -113 29 -220 58 l-195 53 -3 194 c-2
181 -1 193 15 189 10 -3 135 -33 278 -68z m722 -179 c131 -33 300 -74 376 -92
81 -20 137 -38 137 -45 0 -12 -117 -364 -123 -370 -8 -9 -767 200 -767 211 0
6 25 89 55 183 37 115 60 172 70 172 7 0 121 -27 252 -59z m822 -218 c132 -65
242 -197 285 -343 9 -30 19 -97 23 -147 l6 -93 -206 0 -206 0 -25 55 c-14 30
-48 80 -77 110 l-52 55 69 200 c58 167 72 200 88 200 11 0 54 -17 95 -37z
m-3399 -293 l0 -190 -189 0 -189 0 10 38 c27 99 107 209 193 266 48 32 142 74
168 76 4 0 7 -85 7 -190z m0 -581 l0 -199 -192 2 -193 3 -3 185 c-1 101 0 190
3 198 4 10 46 12 195 12 l190 -2 0 -199z m3710 49 c0 -69 -27 -178 -61 -246
-42 -87 -119 -160 -277 -267 l-133 -89 -136 136 -136 136 105 70 c57 38 118
86 135 105 40 46 80 113 89 152 4 17 9 33 11 38 2 4 94 7 204 7 l199 0 0 -42z
m-3710 -633 l0 -195 -195 0 -195 0 0 195 0 195 195 0 195 0 0 -195z m390 -80
c0 -293 5 -331 48 -354 36 -19 89 -13 119 13 l28 24 3 296 3 296 194 0 195 0
0 -760 0 -760 -194 0 -195 0 -3 221 -3 221 -28 24 c-30 26 -83 32 -118 14 -43
-24 -49 -57 -49 -275 l0 -205 -95 0 -95 0 0 760 0 760 95 0 95 0 0 -275z m980
-485 l0 -760 -100 0 -100 0 0 760 0 760 100 0 100 0 0 -760z m1671 466 c-86
-64 -157 -158 -186 -247 l-17 -49 -199 0 c-153 0 -199 3 -199 13 0 6 9 50 20
97 40 166 150 335 281 434 l63 48 132 -138 131 -138 -26 -20z m-3041 -491 l0
-195 -192 2 -193 3 -3 193 -2 192 195 0 195 0 0 -195z m2830 -99 l0 -105 -47
22 c-39 18 -66 22 -148 22 -82 0 -109 -4 -147 -22 l-48 -22 0 105 0 104 195 0
195 0 0 -104z m-89 -280 c65 -44 102 -141 79 -213 -28 -87 -101 -142 -187
-143 -55 0 -91 14 -132 53 -103 98 -73 262 59 322 50 22 131 13 181 -19z"/>
<path d="M1778 3074 c-103 -55 -30 -212 80 -173 75 26 82 138 11 175 -35 18
-57 17 -91 -2z"/>
<path d="M1274 962 c-51 -41 -57 -97 -16 -143 69 -77 193 -5 159 94 -20 60
-98 86 -143 49z"/>
</g>
</svg>
